<mxfile host="Electron" agent="Mozilla/5.0 (Macintosh; Intel Mac OS X 10_15_7) AppleWebKit/537.36 (KHTML, like Gecko) draw.io/24.7.17 Chrome/128.0.6613.36 Electron/32.0.1 Safari/537.36" version="24.7.17">
  <diagram name="Page-1" id="fkt2rJZ2H07SxcQcjXFt">
    <mxGraphModel dx="647" dy="631" grid="1" gridSize="10" guides="1" tooltips="1" connect="1" arrows="1" fold="1" page="1" pageScale="1" pageWidth="3000" pageHeight="3000" math="0" shadow="0">
      <root>
        <mxCell id="0" />
        <mxCell id="1" parent="0" />
        <mxCell id="YlfHfpLAjC9xz6mEg3cm-7" value="" style="rounded=1;whiteSpace=wrap;html=1;dashed=1;" parent="1" vertex="1">
          <mxGeometry x="417.55" y="520" width="160" height="240" as="geometry" />
        </mxCell>
        <mxCell id="YlfHfpLAjC9xz6mEg3cm-5" value="" style="rounded=1;whiteSpace=wrap;html=1;dashed=1;" parent="1" vertex="1">
          <mxGeometry x="240" y="520" width="160" height="240" as="geometry" />
        </mxCell>
        <mxCell id="NTb5cMYKnNLBfpPBUqfE-1" value="" style="shape=image;verticalLabelPosition=bottom;labelBackgroundColor=default;verticalAlign=top;aspect=fixed;imageAspect=0;image=data:image/png,iVBORw0KGgoAAAANSUhEUgAAAPoAAAD6CAYAAACI7Fo9AAAACXBIWXMAAA7EAAAOxAGVKw4bAAAIMUlEQVR4nO3dsYtlVx0H8DeSKvkbMkVAjOWmExdmFTKIqEWaxSVIwNkgLCSdAZEtthBit4ERyY4Ygqxsk0YJYQNmA2ObVGIkaDFpbZNKGEuF81ty3js39773vp9PeXj3vXNn+HLgy7n3HFyuLlfAfvva0hMAvnqCDgEEHQIIOgQQdAgg6BBA0CGAoEMAQYcAgg4BBB0CCDoEEHQIIOgQQNAhgKBDAEGHAIIOAQQdAgg6BBB0CCDoEEDQIYCgQwBBhwCCDgEEHQIIOgQQdAjwxNIT4MsdrA527sjby9XlwdJz4H+s6BBA0CGAoEMAQYcAB5ernet59sYulmxTU9rNw4oOAQQdAgg6BBB0CKCMm8lI8XZ4eLjx715cXGx8be/vjvxGRUE3PSs6BBB0CCDoEEDQIYAy7iswdfFWjZ2fn2/8fVV5NvK53mtHSjsF3RgrOgQQdAgg6BBA0CGAd8YNmrp46y3AevUWYCOfm7rwq1R/ZwVdPys6BBB0CCDoEEDQIYCdcYN6y7ipi7epHw0dMTLnkYJOGdfPig4BBB0CCDoEEHQIoIxbwxwHLgyVU//4UzP2RXHtk8Vv9H7u4Bs/7JrLyH2MUNDVrOgQQNAhgKBDAEGHAMq4NUxdxm178baLBZ0yrmZFhwCCDgEEHQIIOgRQxq1hjvfDVbapeNv2gk4ZV7OiQwBBhwCCDgEEHQIo49Yw9fvhKnevX1lvUv/n5OSkGZu6eDs7O9twdqvVqw8+7vqc98hNz4oOAQQdAgg6BBB0COA01QVVxVtVqPWqirLe7+st3kbmt1q139db0DHGig4BBB0CCDoEEHQIYGfcGqbeGff5+6fN2FPP39pgZo//vqlNPb/q++yMm54VHQIIOgQQdAgg6BBAGbeGN64/1/yxpt7Z9ejRo2bs2rVrzdjlZft/Ozhoe6iRgq4qynp/t/c+RlQ7C1958JEyrmBFhwCCDgEEHQIIOgTwmOpMend7HR0dNWOn//xRM1YVYHOofrea39Ez7X1U5jhhFSs6RBB0CCDoEEDQIYAybtAcj15WqgLsP7/4rBkbOcCh2nn2xK+e7p1il5FHekcOk0hjRYcAgg4BBB0CCDoE8JjqoKnfI/f3373WjD1740Yz9sn9++3nrl5txkZOTq0+98n5+cbz++ZPX2/GvB9uHlZ0CCDoEEDQIYCgQwBl3KDeMq5S7fbqLsAGirdeQwVd5/xGDoRQxvWzokMAQYcAgg4BBB0CeEx1QdUOsKo6q4qtSm/x9sbt283YK3fubPx91e62qnjzLrjlWNEhgKBDAEGHAIIOAeyMW8PILrhe1XvaTk5Ouq4d2QXXqyrZKtX73KY+ebZit1zNig4BBB0CCDoEEHQIoIxbQ1XGzXEaaFXQVY6Pj5uxan69qvt4+PBh17VTF2+9f2dlXM2KDgEEHQIIOgQQdAjgMdXHmGMX3NXi8dPz4v1rvcXW3eEZfbmRkq33fkdU/zcFnRUdIgg6BBB0CCDoEEAZtxo7EXVE7w66l77+Ytfn/v3Ll0em0+Wlj97s+txbn/6hGRvZMVi+X69zt5yCzooOEQQdAgg6BBB0CBBXxk1dvE1dMFWqx0+rXWa3X2gPZqg8/U5b2n32Ql/Jdqc46KHa3TZ1GddrjseGd5EVHQIIOgQQdAgg6BBgr98Zt03FW6+LP/6r63ersbKgK05O/fbPj5qxv/76w2ast3ir/n7l2I+facamNlLG7fNuOSs6BBB0CCDoEEDQIUDczrhtKt56C6v7t97uurb3/WvV6axVGddbvJXF4GvXNr52anbLWdEhgqBDAEGHAIIOAfamjBs5cGGpYqb3PWg3Tn/SjJ2//qgZq3bGVaef9t5v9X3VtdX8lirAev+maazoEEDQIYCgQwBBhwB7U8ZVliqEqgMXqt1o2/Qo59TKR2s7H8E9Oztrxqp30E1tnw96sKJDAEGHAIIOAQQdAux1GTdi6iKv91HOSrULbqndXuXjsdUuveox1c5HcJmeFR0CCDoEEHQIIOgQQBk3k+qRz9VpO1TtqttF1X1Uu9t6H61ljBUdAgg6BBB0CCDoEGCvy7il3gV35bm/NWPVqaa9hdXxxXEzNse99R4IUanuo7rf6u9S/f3e+nTjqbCyokMEQYcAgg4BBB0C7HUZt01Of/OtZuzJ6lHTH7RD5bvlOh9THdllVu7mK1TFYFW8/f7P15uxL8p3xrVlHGOs6BBA0CGAoEMAQYcAyrjHmHrnWfV9z3YWatWBBnOodq1NbakTVtNY0SGAoEMAQYcAgg4BDi5XzQGSO6k6CbNSnY7Ze+2Iu9evNGPVCatPPX+r6/vu3bs3PKep3Lx5s+tzn7/fviSvKhpfffDx8Jw2sS8np1as6BBA0CGAoEMAQYcAe1PGVaqSbakyrlIVdJWlyqkRS93byP9XGQfsNEGHAIIOAQQdAijj1riW7aeMq1nRIYCgQwBBhwCCDgH2uoyb2tQF3Tbt0ttFI8XqPhdvFSs6BBB0CCDoEEDQIYAybtBIeWaXXr+08mxqVnQIIOgQQNAhgKBDAKepDpq6UEsr3pRs87CiQwBBhwCCDgEEHQIo42ZSlU7fLYq378wwlw+KsTl+l+VY0SGAoEMAQYcAgg4BlHFb5s7PXt742ouLi2bs7N33mrHeYvDk+99rrj08PNx4frd/++bG1zLGig4BBB0CCDoEEHQI4J1xC6oKsDn8pbOMW2ouTM+KDgEEHQIIOgQQdAigjIMAVnQIIOgQQNAhgKBDAEGHAIIOAQQdAgg6BBB0CCDoEEDQIYCgQwBBhwCCDgH+C5NluP6jnBV0AAAAAElFTkSuQmCC;" parent="1" vertex="1">
          <mxGeometry x="265" y="570" width="70" height="70" as="geometry" />
        </mxCell>
        <mxCell id="NTb5cMYKnNLBfpPBUqfE-2" value="" style="shape=image;verticalLabelPosition=bottom;labelBackgroundColor=default;verticalAlign=top;aspect=fixed;imageAspect=0;image=data:image/png,iVBORw0KGgoAAAANSUhEUgAAAPoAAAD6CAYAAACI7Fo9AAAACXBIWXMAAA7EAAAOxAGVKw4bAAAH8UlEQVR4nO3dz4tkVxkG4KoQRslA/oFgb0YYstFkEMZFw4CYwU1AXThbIQVqD4zIgBoXHdKLRAMTycB0FEpwOy5EyEY74qoFV/nhJkZcFbhzFUjQIJRLxfOJZ+rerls97/MsD111T93m5cDLuffM17P1DHi4PTL1BICzJ+gQQNAhgKBDAEGHAIIOAQQdAgg6BBB0CCDoEEDQIYCgQwBBhwCCDgEEHQIIOgQQdAgg6BBA0CGAoEMAQYcAgg4BBB0CCDoEEHQIIOgQQNAhgKBDAEGHAI9OPQH+v+P9+bk78vbgdD2feg78mxUdAgg6BBB0CCDoEEAZN6Hekm2xWDRjF/b2Nr7ux6tVM7Yqxj69v7/x9x3P+n6b0m47rOgQQNAhgKBDAEGHAMq4Lekt3q5fv775RToLugvVR4uxqmS7UBR01fdVBWJV+FWlnYJufFZ0CCDoEEDQIYCgQ4D5enbunoDceVXxdnB01P5hVZ4VhVVVilXK3XK9O+g6r1uVcWPP+fjwsBlT0A1jRYcAgg4BBB0CCDoEsDNuoN4db385PW3GysdAi3Kq2nlWlV1DrlEpH13t+uT4yoJTQdfNig4BBB0CCDoEEHQIoIw7A9UuuEHl2dg6d7KdnJw0Y73zWy6XzVjvfake1a3mQj8rOgQQdAgg6BBA0CGAx1QfQO8uuN7SqSqsGHb/7JarWdEhgKBDAEGHAIIOAeyMG6g6qKB651nl6y/c2/i6jxWPmn5UFFZT/V2vn794sxlTXI7Pig4BBB0CCDoEEHQIoIwbqHqvWlXQDSmTdr14G7ugq+6VR1eHsaJDAEGHAIIOAQQdAijjzkBVJvXughtS2lUl4NiF2tjzq+5LtVuOYazoEEDQIYCgQwBBhwDeGfcAet8Zd7M9l2EyH765+aOwF5/ZnVLsXue5Ft4ZV7OiQwBBhwCCDgEEHQLYGTfQP594uhh9uxlZr6cpPefzzbupXZpzdZ8f/Wt7n6lZ0SGAoEMAQYcAgg4BlHEPoCqEqneZze63JdHHf/59M/b8T3/ZjB0cHDRjx8fHzdidO3easdu3b7dzKVS75apdcNX39V6393e8/I2v/s95/qf6nXFdH2VmRYcIgg4BBB0CCDoEUMYNtFe8a63Xl596ohm7dOlSM3blkeeasd7ibWzVdav5Vb+j+r29htxnrOgQQdAhgKBDAEGHAMq4M/DajXYH3Scuty89+8f7m79crirA9j7z62bs1Y2vUJdnqz9+aePvu3r1ajNW3Zfq/jGMFR0CCDoEEHQIIOgQwAEOA929caXrBlaPWT753I9Gn89/W7//xsafnV9+dsSZ1N772feasZPO509v3X/LYQ2drOgQQNAhgKBDAEGHAHbGDVQVQr0FXfXutseqxzGrsdWq5xKzu4eHXX9X6S7yOuf3UTG26vwdirdhrOgQQNAhgKBDAEGHAHbGbUlV0FW75ap3o5UFXXWNonj77Ld+3PXZyruvf6cZu3V01IxVJVulKt6qXXCKt/FZ0SGAoEMAQYcAgg4B7IzbknIH3axvB91isdj4uteuXdv4s+++3o71Fm/L5bLr7xRv22FFhwCCDgEEHQIIOgSwM+4cGPJeut73r439fUq23WJFhwCCDgEEHQIIOgRQxj1Eeku7IZRs55MVHQIIOgQQdAgg6BBAGbdj5rP5xv+Qp377izGnUnrni1/b+LPr2VqRNxErOgQQdAgg6BBA0CGAMm5CQ4q36qCH3pNJq9Kut2Qbct2Kgm47rOgQQNAhgKBDAEGHAA5w2DG9ZVc11vvZd05eHXUuY3+W8VnRIYCgQwBBhwCCDgHsjNuS3l1w2yixjv7eHsJw+Mn2sIYhhvwOu+XGZ0WHAIIOAQQdAgg6BLAzbscMKd56C7DT09NRv69iF9xusaJDAEGHAIIOAQQdAijjzsAu7YKr7O/vN2PtXrnx9f7e6v7ZLTeMFR0CCDoEEHQIIOgQQBk3obF3wW2D3XLnkxUdAgg6BBB0CCDoEEAZtyW95dnDXFi5B9OxokMAQYcAgg4BBB0CKOPOwEs3v9+M/eDeD0e9xjYKq7Gv0ft91f2b3Rt1KnGs6BBA0CGAoEMAQYcAyrgzcPFvv2nGyoLud0VB917fNYbsMustxUbfyfZkO/TSF9r7Ut2/2ezlvmtQsqJDAEGHAIIOAQQdAijjtuQrV9ozHZ6/9UYzNr/8bNf3ncedcetftb/3T8XJrifbOE0ijBUdAgg6BBB0CCDoEGC+nnUd/MlAd2+0bdxisWj+7uIzN/u+8LufHzyn0bzyh64/+/DN9lnT5XLZjN26/5aTU0dmRYcAgg4BBB0CCDoEUMZNqCroKt++//ZZT2V0r914uuvvFG/bYUWHAIIOAQQdAgg6BFDGnQPz2XzUf9J6tm4KsG1cg+lY0SGAoEMAQYcAgg4BBB0CCDoEEHQIIOgQQNAhgKBDAEGHAIIOAQQdAgg6BHCa6o4Z+3HRqVS/w6Or07GiQwBBhwCCDgEEHQIo4ybUW7zt7e01Y6vVqhn7yeMvNmPLD9rTSiufm32qGVs83p72+s0PXth4fgq66VjRIYCgQwBBhwCCDgGUcTumKrbOo96Cju2wokMAQYcAgg4BBB0COE11QlM9krqN01SHzIXxWdEhgKBDAEGHAIIOAZRxEMCKDgEEHQIIOgQQdAgg6BBA0CGAoEMAQYcAgg4BBB0CCDoEEHQIIOgQQNAhwL8A7VYi/CpYn4cAAAAASUVORK5CYII=;" parent="1" vertex="1">
          <mxGeometry x="265" y="684" width="70" height="70" as="geometry" />
        </mxCell>
        <mxCell id="NTb5cMYKnNLBfpPBUqfE-3" value="News Expert" style="text;html=1;strokeColor=none;fillColor=none;align=center;verticalAlign=middle;whiteSpace=wrap;rounded=0;" parent="1" vertex="1">
          <mxGeometry x="320" y="600" width="80" height="25" as="geometry" />
        </mxCell>
        <mxCell id="NTb5cMYKnNLBfpPBUqfE-4" value="Market Factor Expert" style="text;html=1;strokeColor=none;fillColor=none;align=center;verticalAlign=middle;whiteSpace=wrap;rounded=0;" parent="1" vertex="1">
          <mxGeometry x="310" y="714" width="98.75" height="30" as="geometry" />
        </mxCell>
        <mxCell id="I_cuTxDzGcJNj1iMpAn6-5" style="edgeStyle=orthogonalEdgeStyle;rounded=0;orthogonalLoop=1;jettySize=auto;html=1;exitX=0;exitY=0;exitDx=110;exitDy=20;exitPerimeter=0;entryX=0;entryY=0.25;entryDx=0;entryDy=0;curved=1;endArrow=classicThin;endFill=1;" parent="1" source="NTb5cMYKnNLBfpPBUqfE-6" target="YlfHfpLAjC9xz6mEg3cm-32" edge="1">
          <mxGeometry relative="1" as="geometry" />
        </mxCell>
        <mxCell id="I_cuTxDzGcJNj1iMpAn6-7" style="edgeStyle=orthogonalEdgeStyle;rounded=0;orthogonalLoop=1;jettySize=auto;html=1;exitX=0;exitY=0;exitDx=110;exitDy=20;exitPerimeter=0;entryX=0;entryY=0.25;entryDx=0;entryDy=0;curved=1;endArrow=classicThin;endFill=1;" parent="1" source="NTb5cMYKnNLBfpPBUqfE-6" target="YlfHfpLAjC9xz6mEg3cm-21" edge="1">
          <mxGeometry relative="1" as="geometry" />
        </mxCell>
        <mxCell id="NTb5cMYKnNLBfpPBUqfE-6" value="Market&amp;nbsp;&lt;span style=&quot;font-family: Calibri, sans-serif; text-align: left; background-color: initial;&quot;&gt;trend:&amp;nbsp;&lt;/span&gt;&lt;font style=&quot;font-family: Calibri, sans-serif; text-align: left;&quot;&gt;Rise&lt;/font&gt;&lt;br&gt;&lt;p style=&quot;border-color: var(--border-color); text-align: left; margin: 0cm; font-family: Calibri, sans-serif;&quot; class=&quot;MsoNormal&quot;&gt;&lt;font style=&quot;border-color: var(--border-color);&quot;&gt;Explanation:&amp;nbsp;&lt;/font&gt;&lt;span style=&quot;border-color: var(--border-color); background-color: initial;&quot;&gt;...&lt;/span&gt;&lt;/p&gt;" style="shape=callout;whiteSpace=wrap;html=1;perimeter=calloutPerimeter;" parent="1" vertex="1">
          <mxGeometry x="265" y="644" width="110" height="70" as="geometry" />
        </mxCell>
        <mxCell id="I_cuTxDzGcJNj1iMpAn6-4" style="edgeStyle=orthogonalEdgeStyle;rounded=0;orthogonalLoop=1;jettySize=auto;html=1;exitX=0;exitY=0;exitDx=110;exitDy=20;exitPerimeter=0;entryX=0;entryY=0.25;entryDx=0;entryDy=0;curved=1;endArrow=classicThin;endFill=1;" parent="1" source="NTb5cMYKnNLBfpPBUqfE-8" target="YlfHfpLAjC9xz6mEg3cm-21" edge="1">
          <mxGeometry relative="1" as="geometry" />
        </mxCell>
        <mxCell id="I_cuTxDzGcJNj1iMpAn6-6" style="edgeStyle=orthogonalEdgeStyle;rounded=0;orthogonalLoop=1;jettySize=auto;html=1;exitX=0;exitY=0;exitDx=110;exitDy=20;exitPerimeter=0;entryX=0;entryY=0.25;entryDx=0;entryDy=0;curved=1;endArrow=classicThin;endFill=1;" parent="1" source="NTb5cMYKnNLBfpPBUqfE-8" target="YlfHfpLAjC9xz6mEg3cm-32" edge="1">
          <mxGeometry relative="1" as="geometry" />
        </mxCell>
        <mxCell id="NTb5cMYKnNLBfpPBUqfE-8" value="&lt;p style=&quot;border-color: var(--border-color); text-align: left; margin: 0cm; font-family: Calibri, sans-serif;&quot; class=&quot;MsoNormal&quot;&gt;&lt;font style=&quot;border-color: var(--border-color);&quot;&gt;Market trend:&amp;nbsp;Fall&lt;/font&gt;&lt;/p&gt;&lt;p style=&quot;border-color: var(--border-color); text-align: left; margin: 0cm; font-family: Calibri, sans-serif;&quot; class=&quot;MsoNormal&quot;&gt;&lt;font style=&quot;border-color: var(--border-color);&quot;&gt;Explanation:&amp;nbsp;&lt;/font&gt;&lt;span style=&quot;border-color: var(--border-color); background-color: initial;&quot;&gt;...&lt;/span&gt;&lt;/p&gt;" style="shape=callout;whiteSpace=wrap;html=1;perimeter=calloutPerimeter;" parent="1" vertex="1">
          <mxGeometry x="265" y="530" width="110" height="70" as="geometry" />
        </mxCell>
        <mxCell id="YlfHfpLAjC9xz6mEg3cm-3" value="Crypto Factors Expert" style="text;html=1;strokeColor=none;fillColor=none;align=center;verticalAlign=middle;whiteSpace=wrap;rounded=0;" parent="1" vertex="1">
          <mxGeometry x="504.08" y="619" width="73.47" height="25" as="geometry" />
        </mxCell>
        <mxCell id="YlfHfpLAjC9xz6mEg3cm-4" value="Technical Expert" style="text;html=1;strokeColor=none;fillColor=none;align=center;verticalAlign=middle;whiteSpace=wrap;rounded=0;" parent="1" vertex="1">
          <mxGeometry x="495.88999999999993" y="719" width="87.25" height="25" as="geometry" />
        </mxCell>
        <mxCell id="YlfHfpLAjC9xz6mEg3cm-6" value="Market Team" style="text;html=1;strokeColor=none;fillColor=default;align=center;verticalAlign=middle;whiteSpace=wrap;rounded=0;fontStyle=1" parent="1" vertex="1">
          <mxGeometry x="280" y="514" width="80" height="10" as="geometry" />
        </mxCell>
        <mxCell id="YlfHfpLAjC9xz6mEg3cm-8" value="Crypto Team" style="text;html=1;strokeColor=none;fillColor=default;align=center;verticalAlign=middle;whiteSpace=wrap;rounded=0;fontStyle=1" parent="1" vertex="1">
          <mxGeometry x="457.53999999999996" y="514" width="80" height="10" as="geometry" />
        </mxCell>
        <mxCell id="YlfHfpLAjC9xz6mEg3cm-21" value="" style="rounded=1;whiteSpace=wrap;html=1;" parent="1" vertex="1">
          <mxGeometry x="428.3" y="535" width="70" height="60" as="geometry" />
        </mxCell>
        <mxCell id="YlfHfpLAjC9xz6mEg3cm-12" value="Crypto Factors Prompt" style="text;html=1;strokeColor=none;fillColor=none;align=center;verticalAlign=middle;whiteSpace=wrap;rounded=0;" parent="1" vertex="1">
          <mxGeometry x="441.85" y="560" width="46.45" height="30" as="geometry" />
        </mxCell>
        <mxCell id="YlfHfpLAjC9xz6mEg3cm-26" value="Memory" style="text;html=1;strokeColor=none;fillColor=none;align=center;verticalAlign=middle;whiteSpace=wrap;rounded=0;" parent="1" vertex="1">
          <mxGeometry x="438.3" y="535" width="50" height="20" as="geometry" />
        </mxCell>
        <mxCell id="I_cuTxDzGcJNj1iMpAn6-11" style="edgeStyle=orthogonalEdgeStyle;rounded=0;orthogonalLoop=1;jettySize=auto;html=1;exitX=1;exitY=0.5;exitDx=0;exitDy=0;entryX=0;entryY=0.5;entryDx=0;entryDy=0;endArrow=classicThin;endFill=1;" parent="1" source="YlfHfpLAjC9xz6mEg3cm-32" edge="1">
          <mxGeometry relative="1" as="geometry">
            <mxPoint x="522.54" y="678.75" as="targetPoint" />
          </mxGeometry>
        </mxCell>
        <mxCell id="YlfHfpLAjC9xz6mEg3cm-32" value="" style="rounded=1;whiteSpace=wrap;html=1;" parent="1" vertex="1">
          <mxGeometry x="426.36" y="648.75" width="70" height="60" as="geometry" />
        </mxCell>
        <mxCell id="YlfHfpLAjC9xz6mEg3cm-33" value="Candlestick&lt;br&gt;Chart Prompt" style="text;html=1;strokeColor=none;fillColor=none;align=center;verticalAlign=middle;whiteSpace=wrap;rounded=0;" parent="1" vertex="1">
          <mxGeometry x="432.36" y="673.75" width="58" height="30" as="geometry" />
        </mxCell>
        <mxCell id="YlfHfpLAjC9xz6mEg3cm-35" value="Memory" style="text;html=1;strokeColor=none;fillColor=none;align=center;verticalAlign=middle;whiteSpace=wrap;rounded=0;" parent="1" vertex="1">
          <mxGeometry x="435.89" y="648.75" width="50" height="20" as="geometry" />
        </mxCell>
        <mxCell id="YlfHfpLAjC9xz6mEg3cm-44" style="edgeStyle=orthogonalEdgeStyle;rounded=0;orthogonalLoop=1;jettySize=auto;html=1;exitX=0;exitY=0.25;exitDx=0;exitDy=0;entryX=1;entryY=0.25;entryDx=0;entryDy=0;dashed=1;endArrow=none;endFill=0;" parent="1" source="YlfHfpLAjC9xz6mEg3cm-21" target="YlfHfpLAjC9xz6mEg3cm-21" edge="1">
          <mxGeometry relative="1" as="geometry">
            <Array as="points">
              <mxPoint x="470" y="555" />
              <mxPoint x="470" y="555" />
            </Array>
          </mxGeometry>
        </mxCell>
        <mxCell id="YlfHfpLAjC9xz6mEg3cm-45" style="edgeStyle=orthogonalEdgeStyle;rounded=0;orthogonalLoop=1;jettySize=auto;html=1;exitX=0;exitY=0.25;exitDx=0;exitDy=0;entryX=1;entryY=0.25;entryDx=0;entryDy=0;endArrow=none;endFill=0;dashed=1;" parent="1" source="YlfHfpLAjC9xz6mEg3cm-32" target="YlfHfpLAjC9xz6mEg3cm-32" edge="1">
          <mxGeometry relative="1" as="geometry">
            <Array as="points">
              <mxPoint x="459.36" y="668.75" />
              <mxPoint x="459.36" y="668.75" />
            </Array>
          </mxGeometry>
        </mxCell>
        <mxCell id="YlfHfpLAjC9xz6mEg3cm-49" value="Prompt with Market Information" style="text;html=1;strokeColor=none;fillColor=none;align=center;verticalAlign=middle;whiteSpace=wrap;rounded=0;" parent="1" vertex="1">
          <mxGeometry x="425.89" y="605" width="70" height="30" as="geometry" />
        </mxCell>
        <mxCell id="YlfHfpLAjC9xz6mEg3cm-50" value="Prompt with Market Information" style="text;html=1;strokeColor=none;fillColor=none;align=center;verticalAlign=middle;whiteSpace=wrap;rounded=0;" parent="1" vertex="1">
          <mxGeometry x="425.89000000000004" y="720" width="70" height="30" as="geometry" />
        </mxCell>
        <mxCell id="T47CEXbDuKSjyPi_QGaD-2" value="" style="shape=image;verticalLabelPosition=bottom;labelBackgroundColor=default;verticalAlign=top;aspect=fixed;imageAspect=0;image=data:image/png,iVBORw0KGgoAAAANSUhEUgAAAPoAAAD6CAYAAACI7Fo9AAAACXBIWXMAAA7EAAAOxAGVKw4bAAAJlUlEQVR4nO3dT6hmZR0H8PdGUangIguJRgwiCylzgiK5zrjxhuAgtVEIWui1ReZUixw33cVtp5uc6c/Cm2vdhEabbhvTwahgSiKyVtMYElQLwaQWdVu0fH5Dv7nn3Pe93u/ns3w473vOe+5854Evz3PO2t5ibwEcbW9b9QUAB0/QIYCgQwBBhwCCDgEEHQIIOgQQdAgg6BBA0CGAoEMAQYcAgg4BBB0CCDoEEHQIIOgQQNAhgKBDAEGHAIIOAQQdAgg6BBB0CCDoEEDQIYCgQwBBhwCCDgHevuoL4P87duOJWV95++rFF9ZWcQ5Wx4wOAQQdAgg6BBB0CKCMW6FuAba5uTmM3XDDDa1zXLp0aTzvznjeZZyjorRbDjM6BBB0CCDoEEDQIcDa3mLWBVFcRlW8TSnApjh//vwwtr6+fuDnrUq7nZ2dYUxBNz8zOgQQdAgg6BBA0CGAMu4ATCneqrGqxFqV6lqmFIgKuuUwo0MAQYcAgg4BBB0CKOMmWkbxNqUA6352yrVUut/XPU5BN40ZHQIIOgQQdAgg6BDAM+NWqCqdultIp5RY29vb3UtsmbvwW8ZW3TRmdAgg6BBA0CGAoEMAZdwVqFbBbWxsDMd1y6QpxVv12VVtZ93d3R3Gus+g65Zx1X0+tjv+PayWq5nRIYCgQwBBhwCCDgGUcRNNWe3VLbG6xVv1fVNMKffmXvFmtdw0ZnQIIOgQQNAhgKBDAGXcAZjyEobuc9qq4u3VnzwyjB377GP7Pm+l2vY6xZRVdfSZ0SGAoEMAQYcAgg4BlHFLMqXEqgqrb3z6jWHszaJQqwu6rWGseo5cdc3VeSuPF5+tXmxROUxvjz0qzOgQQNAhgKBDAEGHAMq4ieYujqoC7A9P3rfvz85dgHW/rzrspgd7haSXOszPjA4BBB0CCDoEEHQIoIxbLBZn7z0+vAig9ItrWod1C7WbHnx6GPvzxReHsavvHMcq//jpd1vH1dfSu+ar73yodY7KB268vXkt433ploDdv+XpZy5EvejBjA4BBB0CCDoEEHQIoIy7jKr8qVd7jcXRFM8///wwdscddwxje3tj57S2NvZLUwq6qnjrnrf7OxaL/a/6m7JiMI0ZHQIIOgQQdAgg6BBAGbeoV0mdXYwrrDY2NmY9b7UK7uTJk8PYhz74s2GsKsCWoTpvdX0nT5448GvpvtgibRVcxYwOAQQdAgg6BBB0CKCMu4xuQfeHJ8flcnOvlqtUBdjDn/raMHZV8ay16kUP1XFP3HvrMHbul9/uXuKsqlVw1Yo3xVvNjA4BBB0CCDoEEHQIsLa36D0ujcXi2I0nhpvVfbtotaqueinBlC2Vp4s3onaLt+5xZ7fGN7F2VVt/u6vbKo8Xz/B79eILyriCGR0CCDoEEHQIIOgQwMq4iV6+9vPD2C2v/3Df31cVaq+cPz+MfWR9fRjrFmqVbkE39/V1Vfd5seiVdpjRIYKgQwBBhwCCDgGUcRNVq9tevlQUR7tjQVeulivOURVblWW8qKAq46p7UBVv3VVwVfFWnYM+MzoEEHQIIOgQQNAhgG2qE1VbV7u6W1yr7Z3l89KevrDfS2k7e9/xYax7fZVqq2mXLal9ZnQIIOgQQNAhgKBDACvjDsB2sXrsfLGV8/Hms9EWi16x9cpTjza/b15V8dYt2arVgevFSsCtCc+qw4wOEQQdAgg6BBB0CKCMOwDVdsyucrXXxd5nq7e9zq37ttLTxVh3FeGU+0fNjA4BBB0CCDoEEHQIoIy7AlPKpOrZaFXxdt3imuEc93z1K63rO3f3uF10bg9c/2jrHjz3xHeGsb9dfGP4vcd2x3tarZarVH8PW1drZnQIIOgQQNAhgKBDAGXcZVRFT3f76ZTibfP4WKjd2tzK+XBzK+e5u8eXITz8495qtO49eO+L/xzGrrsw/t4pBV11D45tKegqZnQIIOgQQNAhgKBDAGXcFVjG9snqraG//uaPxgO/NQ5VRVn1rLWryjeTjr+tW7xV11e+/XTm90vYztpnRocAgg4BBB0CCDoEiCvjprz9tPuG0Cmr4Cpl6dQs6Cprp04NY/ffdWYY6xZv1fVVZVz1e6esluvq/s2P8go6MzoEEHQIIOgQQNAhwJEu45ax1XRu1bV0/f3J3wxjzz07Prvtqse+MB73yHjcJ//0vn1fS/U7ytVyTd17X/3NbXE1o0MEQYcAgg4BBB0CHOkyrrKMrY3dVXBVObVzYVx9111B1/VmcQ/ePeH7ur9je30sQjcXzdVyi3G13BRpW1zN6BBA0CGAoEMAQYcAR6aM625FnLLVtKt6+2n1EobSs73Dpqwyq58Z13ugW3XebrH1ngc/MY4txrF7dt81fviJ1inKv9vcW1zfiqvlzOgQQNAhgKBDAEGHAEemjDvsBUm1LXJVqkLtr0s4b/ceVFuEpzjs/zaWwYwOAQQdAgg6BBB0CLC2t9j3oiEu4+y9x4eb+vL1zZVxheqZZ11VsfXSZ8b/32/7+X8O/Lxdt/xl/OzpZy7EF2pTmNEhgKBDAEGHAIIOAY7MyrjD7tzd42q0arvoA9/rvfigu011SinWXcnW3ab6gy+P31c9v665k5grYEaHAIIOAQQdAgg6BFDGLUlVWH30oYeGsfvvOjOMdZ9zN7etra1Zv2/t1Klh7Pdnxt/L/MzoEEDQIYCgQwBBhwDKuANQbak8uxi3rlae+vdLw1i1gm7KCxwq1dbVrqporFa8VaqVe7akzs+MDgEEHQIIOgQQdAjgmXErtPbhtd7N37i9dVhV2lWl2NzHlXZfbB2298c9xdsSmNEhgKBDAEGHAIIOAZRxK1SWcUXx1l0ZV61Qm7KCrvt97ZVxRUGnjFsOMzoEEHQIIOgQQNAhgDJuhdor444wZdxymNEhgKBDAEGHAIIOAZRxbwE3v38s7TY3PzYcV61Q2919fRj73WtjAVadY2Pj2uGz1cq4nZ3fts7B6pjRIYCgQwBBhwCCDgGUcYdMVYrNrVvGLeO8LIcZHQIIOgQQdAgg6BDA21RX6MQ7xwLszOduG46rVqNtbT09jN388S8NYzu/2mldy9dfe8cwtvnFzWHsxDPfH8a2t+8bxqpVeid2xt/7wr8UdMtgRocAgg4BBB0CCDoEUMYdMlNeuHCY1L/jpaVfB/9jRocAgg4BBB0CCDoEsE11haqVcctQrUY7TNfC/MzoEEDQIYCgQwBBhwDKOAhgRocAgg4BBB0CCDoEEHQIIOgQQNAhgKBDAEGHAIIOAQQdAgg6BBB0CCDoEOC/KeoSC5kYWYwAAAAASUVORK5CYII=;clipPath=inset(11.6% 17.6% 6.4% 19.6%);" vertex="1" parent="1">
          <mxGeometry x="515.98" y="660" width="41.37" height="54" as="geometry" />
        </mxCell>
        <mxCell id="T47CEXbDuKSjyPi_QGaD-1" value="" style="shape=image;verticalLabelPosition=bottom;labelBackgroundColor=default;verticalAlign=top;aspect=fixed;imageAspect=0;image=data:image/png,iVBORw0KGgoAAAANSUhEUgAAAPoAAAD6CAYAAACI7Fo9AAAACXBIWXMAAA7EAAAOxAGVKw4bAAAJsklEQVR4nO3dT4ikRx0G4B6Jq6x6EILGQAZZRJT8ATUHwcFdlOxFz5NLCEhG2E1CRBI8xVkzBARJUBeSLDiBRRYhc4mHnCYii4wgQRTihgQPIp2DmoPeAgmB8SrUb7Gy9U33pN/nORZfd33dMy8FL/V1rR3ODmfAavvQsm8AOHqCDgEEHQIIOgQQdAgg6BBA0CGAoEMAQYcAgg4BBB0CCDoEEHQIIOgQQNAhgKBDAEGHAIIOAQQdAgg6BBB0CCDoEEDQIYCgQwBBhwCCDgEEHQIIOgQQdAhw07JvgP/v0uYdkx55e27v2toy5mB5rOgQQNAhgKBDAEGHAMq4JeotwLa2tpqxm9bXu+Z4bz5v55218y5ijorSbjGs6BBA0CGAoEMAQYcAa4ezSTdEcR1V8TZSgI2oyrNlzbu7u9uMKeimZ0WHAIIOAQQdAgg6BFDGHYHjVLwddwq6xbCiQwBBhwCCDgEEHQIo4wYdp+JtWTvepqagm54VHQIIOgQQdAgg6BDAb8YdgZHfWlvEa3t1z1GNFa/tfb8PYoF43FnRIYCgQwBBhwCCDgGUce9DtQvu7NmzXa8dKbbeOzjomqO3FOt9bfXPUX6Oqd+veG2127A6JMJuuZoVHQIIOgQQdAgg6BBAGTdovSrPBgqwqjybF2PVvItQ3ktxXe/utqnfj5oVHQIIOgQQdAgg6BBAGTeoKon+VuxkO7Wx0fV+1Wv39/ebsWqnWLkLbmS3XKG6l8q53sdZC1VBd0oZN8SKDgEEHQIIOgQQdAigjFui6vHTqux6d+1EM1YeaLCz0zfxwG+8Var7u7S93Yydu3y5Gas+b++jv/SzokMAQYcAgg4BBB0CKOMG9e5kO1fsjKsKtfu/+2DXdd0FWFXQdT5a2ztvt4EdedX3TD8rOgQQdAgg6BBA0CGAMm7QSy9fbcYG6qrZx+556IZf+/N7v9SM9RZ0vcXb91748w3e3Ww2m7X30mvq7zmNFR0CCDoEEHQIIOgQQBn3PlTlVPVIZbUzrirFzu+91oxdvXq1GTtz5kwzdnjYHCQ6W1trDxJ9bvP2Zqz38dOqeOudt/dzVPdXFW+93zM1KzoEEHQIIOgQQNAhgDJu0MipptVOttOnTzdj//jRO81YVYBVysdef/Fs13Xn99pdetW81f3dcrotLqvPe39xEEW1S29Zp8euCis6BBB0CCDoEEDQIYAybkGqsmtEVYDtvf7VZuxkUWJV91JdV5Vnm1/8Q+8tNsoTYFkIKzoEEHQIIOgQQNAhwNrhrH3skH4X7/1y1xdYPWZZ7fY6WRz00G3ggIRuAzvU3i4OYZgX99z7+OkjL/ypb3sgVnRIIOgQQNAhgKBDADvjBp04fLcZm/zE0aoAGyje3ihKsS/0loALuL9K9T3Tz4oOAQQdAgg6BBB0CKCMOwKPPPF4M3bxwpPNWLlbrni/kwP3crE4OOKR4jTVEdWOt0rvLrjq+6sOwKCfFR0CCDoEEHQIIOgQwGOq78OlzTuaL6v6HbSbip1i1Qmmzz7/y655e39rrfrdt7eLeasDEnoLuur9KtUclQcfuL8Z6/3+qjnO7V3z6GrBig4BBB0CCDoEEHQIYGfcoKo46vXte850XddbbPX+Ll11XVWyjfyeW1WyVe9XqYq3ke8ZKzpEEHQIIOgQQNAhgJ1x1zH1LriqiKqKst7CqvLSy1dv+LW9egvE6rNVer8Xu+XGWNEhgKBDAEGHAIIOAeyMm40Vb1N77OInbvi1V57ue5x1xH2P/qvzyv80I3tPfbIZ6y0kq2+++ntUf7dLs/bvm1bQWdEhgKBDAEGHAIIOAeLKuKmLt5FdcJuPtYVVdS/V+21sfK0Zu+/RC9e9z/915elPF6/tK9l2dp5oxg4Oft+M1Z+33bVWFXQjPM5as6JDAEGHAIIOAQQdAqx0GXecirde6+u3dV1XFWBVUba93RZ03/jZD5uxW2cPd71fb/HW+zkqdstNz4oOAQQdAgg6BBB0CLDSZVxlWcVb7y64Su+8VVFW2SlOTr30nbe63q+7KCvKuOrz2i23GFZ0CCDoEEDQIYCgQ4CVKeN6d8FVpi7e6kMYbvy34HpVj65Wp58eHBwUr/581/vN52923UvvdSNGdsulsaJDAEGHAIIOAQQdAqxMGVeZ+qTTXtUhDFUxWO0e693dNmJjY6MZu/Z8uzNuRO/v3PXvlpv25Nm0R1et6BBA0CGAoEMAQYcAK13GVXoLnJEib2QXXLWTrbfIW4TeeXd320KtKuNYDCs6BBB0CCDoEEDQIUBcGVeVXWfPnj3yeavSbmRn1wfRInb9Vd/pKY+pWtEhgaBDAEGHAIIOAVa6jKt2si1L766wqixcFb6D5bGiQwBBhwCCDgEEHQKsdBm3LC++2p5WOtte/H1cT70j76NHPu/29oWu606++uEbnqMq8s4Vv5GXxooOAQQdAgg6BBB0CLDSZdzIY6BT76p78ebfNmNfKUqi9V+fmHTe4+Spu59oxg4OXmnG9mfT7ozr/62/1WVFhwCCDgEEHQIIOgRY6TKu3CVVnI5ZnaJZ/Y5c7wmrz23e3oyd3ztoxubF+63PPtc1x4jqcIVbZw8f+bzz+T+bsf2/tn+jy/sfn3jetnjr/d9YFVZ0CCDoEEDQIYCgQ4CVKePKkm2zLdkWoSryniuuO3/5V+3gXe3zrFMf/vDNV77VjL3+mfa6qQ9c2P1NWwLu7P67uLIt40YKtapsTWNFhwCCDgEEHQIIOgRYmTJuxNS75XqLsmoH3f4b7XXVHOvrt3XNURVWD/z45mbssYvta3sPXJjP3+y6ri7eWAQrOgQQdAgg6BBA0CHASpdxI48djhR0I3Ps33WhmaN6rHQReg9cGNFbZk79WOkqP5JasaJDAEGHAIIOAQQdAqwdzuKf4Bsy8ihsbyG0c8taM8fW1kea6+bzd5qxosOa3ffk95uxK4//tBmresb19Xbe3d123k99vd31VxWXVclWSSvPpmZFhwCCDgEEHQIIOgRY6Z1xi9BbEvWWdlXxVqkKsKnVPVnfvG/97rX2/YrrlGyLYUWHAIIOAQQdAgg6BLAzbonu/EG14+3u5rreU1yrxzt3d//YjD3093bX2jOfbcuzRdzLX35yqIxbACs6BBB0CCDoEEDQIYCdcUegKtkqI2XXiGo32jOd99yr+hxbW+11d8765lXajbGiQwBBhwCCDgEEHQLYGbcgvQXdIlTF1nG/P8ZY0SGAoEMAQYcAgg4BlHEQwIoOAQQdAgg6BBB0CCDoEEDQIYCgQwBBhwCCDgEEHQIIOgQQdAgg6BBA0CHAfwEMKhgmMQZOFwAAAABJRU5ErkJggg==;clipPath=inset(11.6% 20% 5.2% 19.2%);" vertex="1" parent="1">
          <mxGeometry x="518.0600000000001" y="550" width="43.85" height="60" as="geometry" />
        </mxCell>
        <mxCell id="T47CEXbDuKSjyPi_QGaD-6" style="edgeStyle=orthogonalEdgeStyle;rounded=0;orthogonalLoop=1;jettySize=auto;html=1;exitX=1;exitY=0.5;exitDx=0;exitDy=0;entryX=0;entryY=0.5;entryDx=0;entryDy=0;endArrow=classicThin;endFill=1;" edge="1" parent="1">
          <mxGeometry relative="1" as="geometry">
            <mxPoint x="499" y="564" as="sourcePoint" />
            <mxPoint x="525.54" y="563.75" as="targetPoint" />
          </mxGeometry>
        </mxCell>
      </root>
    </mxGraphModel>
  </diagram>
</mxfile>
